<svg xmlns="http://www.w3.org/2000/svg" width="256" height="256"><path fill="#1976D2" fill-opacity=".016" fill-rule="evenodd" d="M0 128.004v128.004l128.25-.254 128.25-.254.254-127.75L257.008 0H0v128.004m.485.496c0 70.4.119 99.053.265 63.672.146-35.38.146-92.98 0-128C.604 29.153.485 58.1.485 128.5"/><path fill="#1976D2" fill-opacity=".354" fill-rule="evenodd" d="M108 1.478C94.763 3.724 84.493 7.024 72.353 12.932 35.895 30.675 10.936 62.774 2.321 103c-2.542 11.869-2.542 38.131 0 50 8.633 40.308 33.681 72.467 70.179 90.104 28.992 14.009 59.689 16.649 91.5 7.868 10.79-2.978 30.132-12.647 39.983-19.988 25.451-18.965 43.201-46.679 49.441-77.192.867-4.239 1.576-8.825 1.576-10.191 0-1.366.45-2.761 1-3.101.584-.361 1-6.03 1-13.618 0-8.412-.353-12.782-1-12.382-.569.352-1-.504-1-1.983 0-1.431-.709-6.07-1.576-10.309-6.24-30.513-23.99-58.227-49.441-77.192C194.132 17.675 174.79 8.006 164 5.028c-17.889-4.938-39.68-6.319-56-3.55m-1.705 4.056c-24.863 4.547-46.096 15.513-64.528 33.328C16.868 62.927 4.006 93.289 4.006 128c0 34.711 12.862 65.073 37.761 89.138C65.876 240.44 94.46 251.994 128 251.994c33.54 0 62.124-11.554 86.233-34.856 24.899-24.065 37.761-54.427 37.761-89.138 0-34.711-12.862-65.073-37.761-89.138-18.639-18.014-39.949-28.946-64.955-33.32-10.642-1.862-32.824-1.866-42.983-.008M113 13.603c-20.144 3.679-34.011 8.958-48.153 18.33C40.843 47.842 23.856 71.57 16.237 99.83c-2.366 8.779-2.606 11.374-2.606 28.17s.24 19.391 2.606 28.17c11.467 42.534 44.626 74.637 87.263 84.483 11.27 2.602 37.73 2.602 49 0 42.637-9.846 75.796-41.949 87.263-84.483 2.366-8.779 2.606-11.374 2.606-28.17s-.24-19.391-2.606-28.17c-5.666-21.017-16.22-39.14-31.418-53.949-15.056-14.67-31.884-24.182-52.345-29.585-7.75-2.047-12.355-2.568-25-2.829-8.525-.176-16.625-.115-18 .136m-4.666 7.878c-10.507 1.906-19.597 5.115-30.563 10.79-27.194 14.073-46.386 38.337-55.012 69.554-1.808 6.543-2.121 10.402-2.121 26.175 0 20.316 1.031 26.138 7.295 41.184 14.304 34.361 44.86 59.028 80.948 65.348 50.341 8.817 99.541-18.159 119.186-65.348 6.264-15.046 7.295-20.868 7.295-41.184s-1.031-26.138-7.295-41.184c-14.304-34.361-44.86-59.028-80.948-65.348-10.124-1.773-28.976-1.767-38.785.013m6.166 45.943c-4.271 1.916-10.357 8.589-11.514 12.626-.542 1.89-.986 7.392-.986 12.226 0 5.549-.553 10.111-1.5 12.378-1.895 4.535-1.883 5.82.071 7.775.865.864 1.145 1.571.623 1.571-2.167 0-3.404-3.041-2.74-6.736.372-2.07.912-6.352 1.2-9.514.488-5.357.379-5.75-1.597-5.75-2.992 0-8.258 2.38-10.202 4.612-.905 1.038-4.6 13.138-8.213 26.888-3.612 13.75-7.484 28.345-8.605 32.432-3.431 12.518-2.449 18.695 3.414 21.478 2.948 1.398 69.312 10.759 86.598 12.214 11.78.992 15.951-1.944 15.951-11.227 0-4.604-16.167-76.971-17.932-80.27-1.681-3.141-4.64-5.035-8.94-5.723l-4.32-.69.531 5.893c.292 3.241.835 7.587 1.207 9.657.438 2.438.242 4.287-.557 5.25-1.985 2.391-3.18 1.707-1.498-.859 1.375-2.1 1.378-2.725.023-5.968C144.52 103.309 144 98.778 144 92.5c0-6.369-.518-10.806-1.549-13.282-2.126-5.104-8.156-11.041-12.416-12.225-4.914-1.365-11.967-1.169-15.535.431m2.901 3.481c-6.984 3.172-10.379 9.803-11.149 21.775-.403 6.272-.134 9.157 1.15 12.367 1.543 3.857 1.548 4.38.066 6.643-1.571 2.397-1.557 2.428.558 1.296 1.878-1.005 2.081-1.715 1.52-5.323-.356-2.29-.889-6.751-1.185-9.913l-.539-5.75h30.418l-.603 5.75c-.331 3.162-.885 7.444-1.231 9.514-.615 3.683.649 6.736 2.788 6.736.522 0 .242-.707-.623-1.571-1.958-1.959-1.975-3.427-.077-7.065 3.27-6.269.882-23.56-4.168-30.181-2.576-3.377-7.642-6.203-11.044-6.161-.98.012-3.627.86-5.881 1.883M157 92.494c0 .395 1.085 2.007 2.411 3.583 1.613 1.917 3.137 6.104 4.602 12.644 1.205 5.379 5.07 22.244 8.589 37.479 3.519 15.236 6.398 29.92 6.398 32.632 0 4.225-.456 5.377-3.19 8.049L172.62 190h4.134c5.153 0 9.118-3.138 10.113-8.003 1.054-5.157-.065-11.697-7.186-41.997-3.555-15.125-6.776-29.525-7.158-32-.874-5.669-3.889-12.141-6.372-13.682-2.34-1.451-9.151-2.809-9.151-1.824M.392 128c0 7.425.157 10.463.35 6.75.192-3.713.192-9.787 0-13.5-.193-3.713-.35-.675-.35 6.75m119.765-1.005c-5.014 1.186-5.489 2.154-5.246 10.71.191 6.751.55 8.141 2.686 10.382 2.857 2.999 2.349 5.913-1.031 5.913-1.897 0-2.156.435-1.779 3 .402 2.743.773 3 4.326 3 5.705 0 7.887-2.615 7.887-9.452 0-5.314-.111-5.528-4.38-8.465-6.97-4.796-7.181-7.65-.642-8.695 3.057-.489 3.996-1.148 4.5-3.158.566-2.252-.738-4.415-2.478-4.112-.275.048-2.004.442-3.843.877"/><path fill="#1976D2" fill-opacity=".648" fill-rule="evenodd" d="M113.001 1.057C57.421 8.01 13.192 49.47 2.341 104.79c-2.306 11.756-2.306 34.664 0 46.42 5.155 26.282 16.65 47.839 35.63 66.819 25.076 25.076 54.643 37.339 90.029 37.339 21.101 0 36.897-3.537 55.5-12.425 38.613-18.449 67.698-59.201 71.174-99.726.344-4.006 1.008-7.52 1.476-7.809.467-.29.85-4.126.85-8.526 0-4.4-.385-7.762-.856-7.471-.471.291-1.134-2.72-1.475-6.691-3.471-40.459-32.584-81.228-71.169-99.663-21.581-10.311-48.02-14.812-70.499-12m.285 2.972C84.868 7.614 59.938 19.927 39.5 40.473 21.912 58.154 10.985 78.681 5.418 104.5c-2.376 11.021-2.376 35.979 0 47C11.046 177.604 21.961 197.961 40 216s38.396 28.954 64.5 34.582c11.021 2.376 35.979 2.376 47 0 26.104-5.628 46.461-16.543 64.5-34.582s28.954-38.396 34.582-64.5c2.376-11.021 2.376-35.979 0-47C244.954 78.396 234.039 58.039 216 40c-18.03-18.03-39.058-29.301-64.248-34.437-9.66-1.969-28.924-2.738-38.466-1.534M113.208 14C36.992 24.751-7.777 104.244 22.964 174.241c13.141 29.92 41.119 54.786 71.536 63.579 13.12 3.792 18.967 4.594 33.5 4.594 14.533 0 20.38-.802 33.5-4.594 16.783-4.852 34.107-15.336 47.546-28.774a114.252 114.252 0 0 0 0-162.092c-16.317-16.316-35.425-26.659-58.208-31.506-8.889-1.891-29.001-2.665-37.63-1.448M115 20.118c-36.301 4.153-70.021 28.674-85.499 62.174-27.976 60.55 4.538 131.5 68.795 150.121 57.035 16.528 117.603-17.162 134.105-74.595 18.517-64.443-25.811-130.287-92.735-137.749-10.711-1.194-13.857-1.188-24.666.049m1.216 46.873c-3.817 1.621-10.33 7.33-11.962 10.485-.985 1.906-1.777 7.302-2.199 15-.364 6.613-1.198 13.004-1.854 14.202-2.227 4.063 1.241 7.862 5.657 6.196 2.097-.791 2.282-1.306 1.665-4.632-1.335-7.199-1.654-20.041-.595-23.974C109.224 75.742 116.282 69 122.913 69c5.589 0 10.053 2.977 13.432 8.958 2.65 4.691 3.047 6.479 3.449 15.517.371 8.344.153 10.677-1.192 12.73-2.781 4.244 1.081 9.105 5.398 6.795 2.131-1.141 2.828-6.37 1-7.5-.553-.342-1-4.863-1-10.116 0-5.224-.496-11.467-1.102-13.874-1.124-4.466-5.414-10.021-9.898-12.819-3.099-1.933-13.705-3.008-16.784-1.7M94.374 93.195c-2.269.481-4.927 1.759-5.906 2.84-1.042 1.152-3.773 9.943-6.591 21.216C76.81 137.522 76.439 139.416 78 137c.533-.825.976-1.009.985-.41.008.6 6.53 5.1 14.492 10 7.963 4.901 14.488 9.479 14.5 10.175.031 1.732 5.984 5.227 8.913 5.231 1.314.002 2.889.631 3.5 1.398.61.767 9.312 6.553 19.336 12.857 10.025 6.305 17.937 11.753 17.583 12.106-.353.354 2.558.643 6.469.643 5.934 0 7.544-.373 9.728-2.252 4.696-4.039 4.404-7.044-4.494-46.248-4.493-19.8-8.725-37.773-9.404-39.939-1.458-4.654-4.771-7.327-9.608-7.753-3.056-.269-3.544.002-3.845 2.138-.19 1.346.443 5.359 1.406 8.918l1.752 6.47-2.712 2.333c-2.976 2.559-4.743 2.862-7.644 1.31-3.567-1.909-4.235-4.625-2.454-9.987.897-2.699 1.488-6.305 1.313-8.015l-.316-3.109-14.5.001h-14.5l-.305 3.468c-.167 1.908.396 5.143 1.25 7.189 2.167 5.185 1.957 7.015-1.08 9.403-3.345 2.632-5.406 2.615-8.822-.072-2.111-1.66-2.605-2.734-2.186-4.75 2.367-11.398 2.764-14.37 2.007-15.03-.475-.414-2.721-.36-4.99.12m65.389 3.188c1.634 1.861 3.288 5.123 3.675 7.25.612 3.357 4.047 18.522 14.129 62.367 3.21 13.957 3.139 16.127-.671 20.465-3.324 3.786-2.783 4.187 3.352 2.483 5.242-1.456 7.158-5.411 6.482-13.384-.283-3.335-3.266-17.702-6.63-31.925-3.364-14.224-6.857-29.631-7.762-34.239C169.9 96.993 166.734 93 159.331 93h-2.538l2.97 3.383M.349 128c0 4.675.173 6.588.383 4.25.211-2.338.211-6.163 0-8.5-.21-2.338-.383-.425-.383 4.25m116.966-.536c-3.879 1.687-6.315 6.088-6.315 11.408 0 3.411.578 4.466 4.088 7.472 6.022 5.154 4.499 8.68-2.72 6.299-1.82-.6-2.199-.25-2.586 2.386-.38 2.593-.005 3.321 2.333 4.53 4.359 2.254 9.29 1.812 12.808-1.148 2.65-2.23 3.077-3.256 3.077-7.395 0-5.003-.272-5.418-7.417-11.299-4.01-3.301-3.002-5.717 2.386-5.717H127v-4c0-3.854-.118-3.999-3.25-3.961-1.787.022-4.683.663-6.435 1.425"/><path fill="#1976D2" fill-opacity=".649" fill-rule="evenodd" d="M105.5 2.586C53.271 11.77 11.602 53.634 2.615 105.953c-2.077 12.091-2.077 32.003 0 44.094 9.035 52.599 50.787 94.363 103.311 103.342 12.112 2.07 32.036 2.07 44.148 0 52.524-8.979 94.276-50.743 103.311-103.342 2.077-12.091 2.077-32.003 0-44.094C244.35 53.354 202.598 11.59 150.074 2.611 138.521.637 116.658.624 105.5 2.586m5.02 1.464C56.861 12.442 15.44 52.221 4.887 105.5c-1.761 8.887-1.798 36.82-.06 45 5.797 27.288 17.826 49.328 36.845 67.51 14.457 13.821 29.565 22.888 48.186 28.918 13.812 4.473 21.334 5.572 38.142 5.572 16.808 0 24.33-1.099 38.142-5.572 19.7-6.38 34.618-15.601 49.95-30.875 18.571-18.502 29.903-39.714 35.021-65.553 1.761-8.887 1.798-36.82.06-45-10.952-51.552-47.765-89.025-98.335-100.097-8.674-1.899-33.706-2.699-42.318-1.353m7.243 10.074c-26.099 2.05-51.611 13.967-70.642 32.997-44.605 44.605-44.605 117.153 0 161.758 44.579 44.578 117.179 44.578 161.758 0 44.605-44.605 44.605-117.153 0-161.758-18.5-18.5-44.747-31.037-68.379-32.664-4.4-.303-9.125-.674-10.5-.824-1.375-.151-6.882.07-12.237.491m-7.528 6.307c-40.428 7.697-72.028 34.311-85.059 71.638-12.761 36.549-4.95 77.812 20.207 106.749 15.524 17.857 34.629 29.46 58.277 35.395 12.684 3.183 35.996 3.183 48.68 0 42.293-10.614 73.131-42.033 82.424-83.978 2.347-10.59 2.347-33.88 0-44.47-9.245-41.729-40.255-73.465-81.901-83.821-10.883-2.706-32.358-3.468-42.628-1.513m6.39 47.026c-4.39 1.578-10.049 6.616-12.332 10.978-1.009 1.929-1.659 6.555-1.893 13.492-.197 5.806-.854 11.754-1.461 13.219-1.657 4.001-.857 7.295 1.866 7.681 4.371.619 7.039-4.576 3.945-7.682-.861-.864-1.18-4.25-1.024-10.891.189-8.068.65-10.503 2.834-14.966 6.477-13.238 21.351-14.024 28.268-1.493 3.322 6.017 4.639 20.529 2.472 27.239-1.842 5.705-1.261 7.966 2.046 7.966 3.967 0 5.266-2.456 3.604-6.816-.82-2.149-1.462-7.85-1.543-13.684-.076-5.5-.676-11.35-1.334-13-1.417-3.556-6.561-9.151-10.073-10.955-4.133-2.124-11.118-2.618-15.375-1.088M91.957 94.093c-3.164 1.164-5.603 5.177-6.326 10.407-.304 2.2-.325 3.276-.046 2.392.422-1.337 1.014-1.135 3.512 1.199 1.653 1.543 3.994 3.116 5.204 3.495 1.209.379 3.272 1.527 4.584 2.552 1.312 1.024 3.337 1.898 4.5 1.941 1.255.047 1.566.298.764.617-1.554.619 10.016 8.304 12.502 8.304 1.174 0 .975.525-.79 2.08l-2.361 2.08 2.473-1.58c1.368-.875 4.605-1.58 7.25-1.58 5.078 0 5.523.616 4.147 5.75-.45 1.677-1.401 2.288-3.737 2.4l-3.133.15 2.872.428c1.579.236 3.308-.008 3.842-.542.627-.627 2.972.354 6.628 2.771C146.551 145.359 170.13 160 170.952 160c.485 0 1.108.563 1.386 1.25 1.601 3.968.024-4.267-5.38-28.103-8.212-36.219-8.392-36.803-11.932-38.634-1.61-.832-4.074-1.513-5.476-1.513-2.421 0-2.55.276-2.55 5.441 0 2.993.45 5.719 1 6.059 1.721 1.064 1.092 6.408-1 8.5-2.617 2.617-7.43 2.57-10.098-.098-1.685-1.685-1.969-2.817-1.441-5.75.362-2.009.898-6.014 1.191-8.902l.533-5.25h-28.37l.533 5.25c.293 2.888.829 6.893 1.191 8.902.528 2.933.244 4.065-1.441 5.75-4.392 4.392-12.098 1.59-12.098-4.4 0-1.861.45-3.662 1-4.002.55-.34 1-3.066 1-6.059 0-4.999-.183-5.435-2.25-5.362-1.237.043-3.394.5-4.793 1.014M158 93.59c0 .324.923 1.337 2.05 2.25 1.62 1.311 3.489 7.861 8.893 31.16 7.235 31.188 9.817 41.342 9.966 39.179.069-1 .475-.937 1.672.259.869.869 1.977 1.335 2.462 1.036.485-.3 1.308.933 1.829 2.74 2.66 9.223.47-2.093-4.93-25.48-3.332-14.429-6.922-30.397-7.978-35.485-2.201-10.61-3.847-13.664-8.179-15.174-3.413-1.19-5.785-1.389-5.785-.485m15.079 70.993c.048 1.165.285 1.402.604.605.289-.722.253-1.585-.079-1.917-.332-.332-.568.258-.525 1.312"/></svg>